<svg version="1.1" xmlns="http://www.w3.org/2000/svg" xmlns:xlink="http://www.w3.org/1999/xlink" x="0px" y="0px" viewBox="0 0 224 59" style="enable-background:new 0 0 224 59;" xml:space="preserve" class="clh-svgLogo">
	<g class="clh-svgLogo-castlight">
		<g class="clh-svgLogo-cast" fill="#2C3542">
			<path class="clh-svgLogo-cast-c" d="M22.9,32.7c-1.4,2.2-3.9,3.6-6.7,3.6c-4.4,0-8-3.6-8-8c0-4.4,3.6-8,8-8c2.8,0,5.2,1.4,6.7,3.6H31l-0.1-0.5
			c-1.8-6.8-7.4-11-14.6-11c-8.9,0-15.7,6.9-15.7,16c0,9,6.7,15.9,15.7,15.9c7.4,0,12.9-4.1,14.7-11l0.1-0.5H22.9z"/>
			<path class="clh-svgLogo-cast-a" d="M48.6,12.4c-8.9,0-15.6,6.9-15.6,16c0,8.7,6.5,15.8,14.6,15.8c3.4,0,6.4-1.1,8.6-3.1v2.5h8V28.4
			C64.1,19.3,57.4,12.4,48.6,12.4z M48.6,36.4c-4.4,0-8-3.6-8-8c0-4.4,3.6-8,8-8c4.4,0,8,3.6,8,8C56.6,32.8,53,36.4,48.6,36.4z"/>
			<path class="clh-svgLogo-cast-s" d="M66.5,33.6L66.5,33.6C67.4,40,73,44.1,80.7,44.1c7.8,0,13.2-4.2,13.2-10.2c0-6.8-5.8-8.3-12.9-9.4
			c-3.5-0.5-5.9-1.1-5.9-2.7c0-1.1,1.6-2.4,5-2.4c2.6,0,4.5,1,5,2.5l0,0h8l0,0c-1-5.7-6.1-9.4-13-9.4c-8.8,0-12.9,5-12.9,9.6
			c0,7.1,8.2,8.3,12.6,9c5.3,0.8,6.3,1.6,6.3,3.2c0,1.6-2.1,2.7-5.4,2.7c-2.5,0-5.4-1.1-6.4-3.5l0,0H66.5z"/>
			<path  d="M110.1,35.8c-0.2,0-0.5,0-0.7,0c-3.2,0-4.6-1.5-4.6-5.1v-10h5.3v-7.5h-5.3V5.6h-8.4v25
			c0,8.1,4.4,12.9,11.8,12.9c0.6,0,1.3,0,2-0.1l0.4,0v-7.7L110.1,35.8z" class="clh-svgLogo-cast-t"/>
		</g>
		<g class="clh-svgLogo-light" fill="#FF5B29 ">
			<rect x="114.1" y="0" class="clh-svgLogo-light-l" width="8.4" height="43.5" />
			<g  class="clh-svgLogo-light-i">
				<rect x="127.2" y="2.9" class="st0" width="8.4" height="7.9"/>
				<rect x="127.2" y="13.1" class="st0" width="8.4" height="30.4"/>
			</g>
			<path class="clh-svgLogo-light-g" d="M174.6,20.7v-7.6h-5v0h-14.1c-6.4,0-12.2,3.7-14.8,9.5c-3.6,8.2-1.1,16.2,4.4,20.8c-3.6,3.1-6,7.7-6.1,12.8h0
			v1.6h8.2v-1.3h0c0-4.9,4-9,9-9c4.9,0,9,4,9,9h0v1.3h8.2v-1.6h0c-0.1-5.1-2.4-9.7-6.1-12.8c3.7-3.2,6.1-7.9,6.1-13.1
			c0-3.6-1.1-6.9-3-9.6l0,0H174.6z M164.2,34.8c-0.7,1.5-2,2.8-3.5,3.5c-8.2,4-16.3-4.1-12.3-12.3c0.7-1.5,2-2.8,3.5-3.5
			C160.1,18.4,168.2,26.5,164.2,34.8z"/>
			<path d="M193,12.4c-2.3,0-4.5,0.7-6.4,1.9V0h-8.5v43.5h8.5V25.8c0-3.1,2.1-5.2,5.3-5.2c1.9,0,5.1,0.7,5.1,5.2v17.7h8.4
				V25.8C205.5,17.8,200.5,12.4,193,12.4z" class="clh-svgLogo-light-h"/>
			<path class="clh-svgLogo-light-t" d="M223,35.8c-0.2,0-0.5,0-0.7,0c-3.2,0-4.6-1.5-4.6-5.1v-10h5.3v-7.5h-5.3V5.6h-8.4v25c0,8.1,4.4,12.9,11.8,12.9
				c0.6,0,1.3,0,2-0.1l0.4,0v-7.7L223,35.8z"/>
		</g>
	</g>
	<g class="clh-svgLogo-health" fill="#2C3542">
		<path class="clh-svgLogo-health-h" d="M185.1,57.9h-1.6v-3.6h-3.6v3.6h-1.6v-8.5h1.6v3.4h3.6v-3.4h1.6V57.9z"/>
		<path class="clh-svgLogo-health-e" d="M193.2,57.9h-6.3v-8.5h6.2v1.5h-4.6v1.8h3.9v1.5h-3.9v2.2h4.7V57.9z"/>
		<path class="clh-svgLogo-health-a" d="M196.7,56.1l-0.6,1.7h-1.7l3-8.5h2.1l3,8.5h-1.7l-0.6-1.7H196.7z M198.4,51.1l-1.2,3.5h2.4L198.4,51.1z"/>
		<path class="clh-svgLogo-health-l" d="M205.4,56.3h4.2v1.5h-5.9v-8.5h1.6V56.3z"/>
		<path class="clh-svgLogo-health-t" d="M212.9,50.8v7h-1.6v-7H209v-1.5h6.2v1.5H212.9z"/>
		<path class="clh-svgLogo-health-h" d="M223.5,57.9h-1.6v-3.6h-3.6v3.6h-1.6v-8.5h1.6v3.4h3.6v-3.4h1.6V57.9z"/>
	</g>
</svg>